<svg xmlns="http://www.w3.org/2000/svg" width="414" height="73" fill="none" viewBox="0 0 414 73">
    <path fill="#fff" d="M0 0H414V73H0z"/>
    <path fill="#55ACEE" fill-rule="evenodd" d="M374.363 27.962c-.475-1.95-3.25-1.95-3.725 0-.071.294-.21.566-.406.795-.196.229-.444.409-.722.524-.279.115-.58.164-.881.14-.301-.023-.591-.117-.849-.273-1.715-1.046-3.677.917-2.632 2.632.675 1.108.076 2.553-1.184 2.859-1.951.473-1.951 3.25 0 3.722.293.071.565.21.794.407.229.196.409.443.524.722.116.278.164.58.14.881-.023.3-.117.592-.274.849-1.045 1.715.917 3.678 2.632 2.633.257-.158.548-.252.849-.275.301-.024.603.024.881.14.279.115.526.295.722.524.197.229.336.501.407.794.474 1.951 3.25 1.951 3.722 0 .072-.293.211-.565.407-.794.196-.229.444-.408.722-.523.279-.116.581-.164.881-.14.301.023.592.117.849.273 1.715 1.046 3.678-.917 2.633-2.632-.157-.258-.251-.548-.274-.849-.024-.3.024-.602.14-.88.115-.28.294-.527.523-.723.229-.196.501-.336.794-.407 1.952-.473 1.952-3.25 0-3.722-.293-.071-.565-.21-.794-.407-.229-.196-.409-.443-.524-.722-.115-.278-.163-.58-.14-.881.023-.3.117-.592.275-.849 1.045-1.715-.918-3.678-2.633-2.633-.257.158-.548.252-.849.275-.301.023-.603-.024-.881-.14-.279-.115-.526-.295-.722-.524-.196-.229-.336-.501-.407-.794l.002-.002zM372.5 40.25c.995 0 1.948-.395 2.652-1.098.703-.704 1.098-1.657 1.098-2.652 0-.995-.395-1.948-1.098-2.652-.704-.703-1.657-1.098-2.652-1.098-.995 0-1.948.395-2.652 1.098-.703.704-1.098 1.657-1.098 2.652 0 .995.395 1.948 1.098 2.652.704.703 1.657 1.098 2.652 1.098zM299.5 36.5c0 2.652-1.054 5.196-2.929 7.071-1.875 1.875-4.419 2.929-7.071 2.929s-5.196-1.054-7.071-2.929c-1.875-1.875-2.929-4.419-2.929-7.071s1.054-5.196 2.929-7.071c1.875-1.875 4.419-2.929 7.071-2.929s5.196 1.054 7.071 2.929c1.875 1.875 2.929 4.419 2.929 7.071zm-7.5-3.75c0 .663-.263 1.299-.732 1.768-.469.469-1.105.732-1.768.732s-1.299-.263-1.768-.732c-.469-.47-.732-1.105-.732-1.768s.263-1.299.732-1.768c.469-.469 1.105-.732 1.768-.732s1.299.263 1.768.732c.469.47.732 1.105.732 1.768zm-2.5 5c-1.197 0-2.368.343-3.376.99-1.007.645-1.808 1.567-2.307 2.655.704.818 1.576 1.475 2.557 1.924.981.45 2.047.682 3.126.681 1.079.001 2.145-.231 3.126-.68.981-.45 1.853-1.107 2.556-1.925-.498-1.088-1.299-2.01-2.306-2.656-1.008-.646-2.179-.99-3.376-.989zM197.965 30.465c.938-.937 2.209-1.464 3.535-1.464s2.597.527 3.535 1.464l1.465 1.464 1.465-1.464c.461-.478 1.013-.858 1.623-1.12.61-.263 1.266-.4 1.93-.406.664-.006 1.322.12 1.937.372.614.251 1.173.622 1.642 1.092.469.47.841 1.028 1.092 1.642.252.615.378 1.273.372 1.937-.005.664-.143 1.32-.405 1.93-.263.61-.643 1.162-1.121 1.623L206.5 46.07l-8.535-8.536c-.937-.938-1.464-2.21-1.464-3.535 0-1.326.527-2.597 1.464-3.535zM121 29c-1.326 0-2.598.527-3.536 1.464-.937.938-1.464 2.21-1.464 3.536s.527 2.598 1.464 3.535c.938.938 2.21 1.465 3.536 1.465s2.598-.527 3.536-1.465C125.473 36.599 126 35.326 126 34s-.527-2.598-1.464-3.536C123.598 29.527 122.326 29 121 29zm-7.5 5c0-1.18.278-2.344.813-3.397.534-1.052 1.309-1.963 2.262-2.66.954-.696 2.058-1.158 3.223-1.347 1.165-.19 2.358-.1 3.483.258 1.124.36 2.148.978 2.988 1.808.84.829 1.472 1.845 1.846 2.964.373 1.12.477 2.312.303 3.48-.174 1.167-.622 2.277-1.306 3.239l6.022 6.021c.227.236.353.552.351.88-.003.327-.135.64-.366.872-.232.232-.546.364-.874.367-.327.002-.643-.124-.879-.351l-6.02-6.02c-1.122.798-2.442 1.271-3.815 1.369-1.373.097-2.747-.185-3.971-.817-1.223-.631-2.249-1.587-2.965-2.763-.717-1.176-1.095-2.526-1.095-3.903z" clip-rule="evenodd"/>
    <path fill="#55ACEE" d="M41.384 26.866c-.235-.234-.553-.366-.884-.366-.331 0-.65.132-.884.366l-8.75 8.75c-.227.236-.353.551-.35.88.002.327.134.64.366.872.231.232.545.363.872.366.328.003.644-.123.88-.35l.366-.367v8.233c0 .331.132.65.366.884.235.234.553.366.884.366h2.5c.331 0 .65-.132.884-.366.234-.235.366-.553.366-.884v-2.5c0-.332.132-.65.366-.884.235-.235.553-.366.884-.366h2.5c.331 0 .65.131.884.366.234.234.366.552.366.884v2.5c0 .331.132.65.366.884.235.234.553.366.884.366h2.5c.331 0 .65-.132.884-.366.234-.235.366-.553.366-.884v-8.233l.366.366c.236.228.552.354.88.351.327-.003.64-.134.872-.366.232-.232.364-.545.367-.873.002-.328-.123-.643-.351-.879l-8.75-8.75z"/>
</svg>
